<svg width="52" height="52" viewBox="0 0 52 52" fill="none" xmlns="http://www.w3.org/2000/svg">
<path d="M0 26C0 11.6406 11.6406 0 26 0C40.3594 0 52 11.6406 52 26C52 40.3594 40.3594 52 26 52C11.6406 52 0 40.3594 0 26Z" fill="#0E9F6E"/>
<path d="M16.5464 36.8325C15.2826 36.3964 14.5105 35.2837 14.515 33.9049C14.5179 32.9985 14.7582 32.3568 15.3086 31.7856C16.4318 30.6201 18.1101 30.5438 19.3037 31.6039C20.8997 33.0217 20.583 35.6402 18.6932 36.6505C18.1455 36.9432 17.1194 37.0302 16.5464 36.8325ZM18.424 34.8573C19.0036 34.1841 18.7703 32.9797 17.9951 32.6436C17.4671 32.4146 17.1537 32.4321 16.7061 32.7153C15.9961 33.1644 15.8422 34.1025 16.3652 34.7925C16.6821 35.2106 16.9844 35.3288 17.5952 35.2732C17.9905 35.2372 18.1777 35.1433 18.424 34.8573ZM32.9732 36.7103C32.3361 36.3952 31.7195 35.7366 31.4596 35.0934C31.2272 34.5183 31.2354 33.3581 31.476 32.7715C31.7283 32.1565 32.3964 31.4371 32.9741 31.1585C33.676 30.82 34.7798 30.8553 35.5238 31.2401C37.3255 32.1717 37.6807 34.6465 36.2249 36.1235C35.689 36.6672 35.1298 36.9067 34.2887 36.9527C33.6877 36.9855 33.4362 36.9392 32.9732 36.7103ZM35.1017 34.9887C35.39 34.7214 35.472 34.5385 35.5159 34.064C35.5633 33.5518 35.5302 33.4226 35.2689 33.1003C34.2458 31.8385 32.4229 32.879 32.9197 34.4411C33.1995 35.321 34.4145 35.6259 35.1017 34.9887ZM11.2275 33.7696C10.9924 33.6119 10.8128 33.3629 10.7352 33.0871C10.6527 32.7945 10.6243 30.4466 10.6479 25.8858C10.6806 19.5664 10.6968 19.0968 10.8919 18.7879C11.3294 18.0953 10.8446 18.1211 23.4318 18.1211C31.7468 18.1211 35.1337 18.1592 35.5085 18.2572C36.4088 18.4924 36.6218 18.8376 37.9467 22.2091C39.1371 25.2383 39.1505 25.2649 39.5771 25.4425C40.4176 25.7924 40.6644 26.4603 41.2112 29.8638C41.6674 32.7037 41.6761 32.8858 41.3809 33.3883C41.0866 33.8892 40.5402 34.035 39.1205 33.9918L38.0062 33.9578L37.9271 33.3824C37.8201 32.6041 37.3131 31.6026 36.7667 31.0903C36.022 30.3921 35.2056 30.0712 34.1743 30.0712C33.096 30.0712 32.2729 30.4149 31.547 31.1681C31.0479 31.6861 30.5194 32.7031 30.5174 33.1493C30.5168 33.2919 30.4659 33.5461 30.4043 33.7142L30.2923 34.0198L25.7561 33.9888L21.2198 33.9578L21.0721 33.2064C20.8088 31.8667 20.0968 30.9459 18.8756 30.3657C18.0475 29.9723 16.7575 29.9528 15.9542 30.3216C14.74 30.8789 14.0432 31.7639 13.6983 33.1867L13.5114 33.9578L12.5544 33.9879C11.7461 34.0133 11.54 33.9794 11.2275 33.7696ZM25.8358 30.9921C25.8393 30.9269 25.8367 30.2574 25.8302 29.5044C25.8237 28.7514 25.8521 28.0441 25.8933 27.9326C25.959 27.7548 26.1639 27.7299 27.5564 27.7299H29.1446V26.0691V24.4083H27.5564C26.1639 24.4083 25.959 24.3833 25.8933 24.2056C25.8521 24.0941 25.8237 23.3868 25.8302 22.6338C25.8367 21.8808 25.8393 21.198 25.8358 21.1164C25.8311 21.0055 25.4437 20.9681 24.2985 20.9681C23.0078 20.9681 22.7566 20.9976 22.6981 21.1558C22.6599 21.259 22.6287 22.033 22.6287 22.8759V24.4083H21.0283H19.4279V26.0691V27.7299H21.0283H22.6287V29.3076C22.6287 30.1754 22.6776 30.9361 22.7373 30.9981C22.8852 31.1515 25.8276 31.1459 25.8358 30.9921ZM37.4269 25.0105C37.4936 24.8985 35.6163 19.9636 35.4029 19.6901C35.3141 19.5762 34.8172 19.547 33.3865 19.5715L31.488 19.6039L31.4571 22.2109C31.4401 23.6447 31.4514 24.8859 31.4821 24.969C31.5253 25.0859 32.1969 25.1201 34.4498 25.1201C36.1065 25.1201 37.3897 25.0729 37.4269 25.0105ZM26.9726 17.1127C26.9726 16.8529 27.0221 16.8162 27.3727 16.8162C27.7425 16.8162 27.7728 16.7888 27.7728 16.4544C27.7728 15.4035 28.8998 14.7153 29.8159 15.2069C30.2727 15.452 30.438 15.7035 30.5099 16.2629C30.5684 16.7173 30.6032 16.7598 30.945 16.794C31.2527 16.8248 31.3165 16.8808 31.3165 17.1202V17.4093H29.1446H26.9726V17.1127Z" fill="white"/>
</svg>
