<svg width="52" height="52" viewBox="0 0 52 52" fill="none" xmlns="http://www.w3.org/2000/svg">
<path d="M0 26C0 11.6406 11.6406 0 26 0C40.3594 0 52 11.6406 52 26C52 40.3594 40.3594 52 26 52C11.6406 52 0 40.3594 0 26Z" fill="#C27803"/>
<path d="M40.6066 22.3781L26.7557 12.3048C26.252 11.927 25.7483 11.927 25.2447 12.3048L11.3938 22.3781C10.3864 23.0077 11.016 24.6446 12.1493 24.6446H14.6676V38.4955C14.6676 39.251 15.1713 39.7547 15.9268 39.7547H36.0735C36.829 39.7547 37.3326 39.251 37.3326 38.4955V24.6446H39.851C40.9843 24.6446 41.6139 23.0077 40.6066 22.3781ZM26.0002 37.2364C21.8449 37.2364 18.4451 33.8366 18.4451 29.6813C18.4451 25.5261 21.8449 22.1263 26.0002 22.1263C30.1554 22.1263 33.5552 25.5261 33.5552 29.6813C33.5552 33.8366 30.1554 37.2364 26.0002 37.2364Z" fill="white"/>
<path d="M27.8885 27.7931V24.0156H24.111V27.7931H20.3335V31.5706H24.111V35.3482H27.8885V31.5706H31.666V27.7931H27.8885Z" fill="white"/>
</svg>
